<svg xmlns="http://www.w3.org/2000/svg" version="1.1" xmlns:xlink="http://www.w3.org/1999/xlink" xmlns:svgjs="http://svgjs.com/svgjs" width="1073" height="771"><svg width="1073" height="771" viewBox="0 0 1073 771" fill="none" xmlns="http://www.w3.org/2000/svg">
    <path d="M0 356.003L257.992 293.628L214.863 403.748L0 356.003Z" fill="#DDDDDD"></path>
    <path d="M278.784 114.973L214.863 403.747L455.918 240.483L278.784 114.973Z" fill="#4E566D"></path>
    <path d="M594.119 771H1073.41V339.188L736.641 55.2737L484.81 512.738L594.119 771Z" fill="#E0E0E0"></path>
    <path d="M484.81 512.737L705.441 475.376L579.906 332.143L484.81 512.737Z" fill="#4E566D"></path>
    <path d="M600.698 0.214111L812.492 54.881L705.441 475.377L278.784 114.973L600.698 0.214111Z" fill="#F7F7F7"></path>
    <path d="M278.784 114.973L395.482 281.403L440.109 251.235L278.784 114.973Z" fill="#373C49"></path>
    <path d="M705.441 475.377L566.061 357.697L549.541 389.878L705.441 475.377Z" fill="#373C49"></path>
    <path d="M580.741 133.236C600.398 133.236 616.334 117.3 616.334 97.6424C616.334 77.9846 600.398 62.0488 580.741 62.0488C561.083 62.0488 545.147 77.9846 545.147 97.6424C545.147 117.3 561.083 133.236 580.741 133.236Z" fill="url(#paint0_linear_113_77)"></path>
    <path d="M573.082 117.157C581.325 117.157 588.007 110.475 588.007 102.233C588.007 93.9899 581.325 87.3079 573.082 87.3079C564.839 87.3079 558.157 93.9899 558.157 102.233C558.157 110.475 564.839 117.157 573.082 117.157Z" fill="#FBB03B"></path>
    <defs>
        <linearGradient id="SvgjsLinearGradient1000" x1="598.537" y1="66.811" x2="562.919" y2="128.474" gradientUnits="userSpaceOnUse">
            <stop stop-color="#2E314B"></stop>
            <stop offset="0.28" stop-color="#282A3C"></stop>
            <stop offset="1" stop-color="#1A1A1A"></stop>
        </linearGradient>
    </defs>
</svg><style>@media (prefers-color-scheme: light) { :root { filter: contrast(1) brightness(0.8); } }
</style></svg>